<svg aria-roledescription="er" role="graphics-document document" viewBox="-78.69877243041992 0 320.21466064453125 593" style="max-width: 320.215px; background-color: white;" xmlns:xlink="http://www.w3.org/1999/xlink" xmlns="http://www.w3.org/2000/svg" width="100%" id="my-svg"><style>#my-svg{font-family:"trebuchet ms",verdana,arial,sans-serif;font-size:16px;fill:#000000;}#my-svg .error-icon{fill:#552222;}#my-svg .error-text{fill:#552222;stroke:#552222;}#my-svg .edge-thickness-normal{stroke-width:1px;}#my-svg .edge-thickness-thick{stroke-width:3.5px;}#my-svg .edge-pattern-solid{stroke-dasharray:0;}#my-svg .edge-thickness-invisible{stroke-width:0;fill:none;}#my-svg .edge-pattern-dashed{stroke-dasharray:3;}#my-svg .edge-pattern-dotted{stroke-dasharray:2;}#my-svg .marker{fill:#000000;stroke:#000000;}#my-svg .marker.cross{stroke:#000000;}#my-svg svg{font-family:"trebuchet ms",verdana,arial,sans-serif;font-size:16px;}#my-svg p{margin:0;}#my-svg .entityBox{fill:#cde498;stroke:#13540c;}#my-svg .attributeBoxOdd{fill:#ffffff;stroke:#13540c;}#my-svg .attributeBoxEven{fill:#f2f2f2;stroke:#13540c;}#my-svg .relationshipLabelBox{fill:hsl(78.1578947368, 58.4615384615%, 84.5098039216%);opacity:0.7;background-color:hsl(78.1578947368, 58.4615384615%, 84.5098039216%);}#my-svg .relationshipLabelBox rect{opacity:0.5;}#my-svg .relationshipLine{stroke:#000000;}#my-svg .entityTitleText{text-anchor:middle;font-size:18px;fill:#000000;}#my-svg #MD_PARENT_START{fill:#f5f5f5!important;stroke:#000000!important;stroke-width:1;}#my-svg #MD_PARENT_END{fill:#f5f5f5!important;stroke:#000000!important;stroke-width:1;}#my-svg :root{--mermaid-font-family:"trebuchet ms",verdana,arial,sans-serif;}</style><g/><defs><marker orient="auto" markerHeight="240" markerWidth="190" refY="7" refX="0" id="MD_PARENT_START"><path d="M 18,7 L9,13 L1,7 L9,1 Z"/></marker></defs><defs><marker orient="auto" markerHeight="28" markerWidth="20" refY="7" refX="19" id="MD_PARENT_END"><path d="M 18,7 L9,13 L1,7 L9,1 Z"/></marker></defs><defs><marker orient="auto" markerHeight="18" markerWidth="18" refY="9" refX="0" id="ONLY_ONE_START"><path d="M9,0 L9,18 M15,0 L15,18" fill="none" stroke="gray"/></marker></defs><defs><marker orient="auto" markerHeight="18" markerWidth="18" refY="9" refX="18" id="ONLY_ONE_END"><path d="M3,0 L3,18 M9,0 L9,18" fill="none" stroke="gray"/></marker></defs><defs><marker orient="auto" markerHeight="18" markerWidth="30" refY="9" refX="0" id="ZERO_OR_ONE_START"><circle r="6" cy="9" cx="21" fill="white" stroke="gray"/><path d="M9,0 L9,18" fill="none" stroke="gray"/></marker></defs><defs><marker orient="auto" markerHeight="18" markerWidth="30" refY="9" refX="30" id="ZERO_OR_ONE_END"><circle r="6" cy="9" cx="9" fill="white" stroke="gray"/><path d="M21,0 L21,18" fill="none" stroke="gray"/></marker></defs><defs><marker orient="auto" markerHeight="36" markerWidth="45" refY="18" refX="18" id="ONE_OR_MORE_START"><path d="M0,18 Q 18,0 36,18 Q 18,36 0,18 M42,9 L42,27" fill="none" stroke="gray"/></marker></defs><defs><marker orient="auto" markerHeight="36" markerWidth="45" refY="18" refX="27" id="ONE_OR_MORE_END"><path d="M3,9 L3,27 M9,18 Q27,0 45,18 Q27,36 9,18" fill="none" stroke="gray"/></marker></defs><defs><marker orient="auto" markerHeight="36" markerWidth="57" refY="18" refX="18" id="ZERO_OR_MORE_START"><circle r="6" cy="18" cx="48" fill="white" stroke="gray"/><path d="M0,18 Q18,0 36,18 Q18,36 0,18" fill="none" stroke="gray"/></marker></defs><defs><marker orient="auto" markerHeight="36" markerWidth="57" refY="18" refX="39" id="ZERO_OR_MORE_END"><circle r="6" cy="18" cx="9" fill="white" stroke="gray"/><path d="M21,18 Q39,0 57,18 Q39,36 21,18" fill="none" stroke="gray"/></marker></defs><path style="stroke: gray; fill: none;" marker-start="url(#ZERO_OR_MORE_START)" marker-end="url(#ZERO_OR_MORE_END)" d="M25.22,114.859L9.71,125.715C-5.799,136.572,-36.819,158.286,-37.689,178.366C-38.559,198.446,-9.28,216.892,5.36,226.115L20,235.339" class="er relationshipLine"/><path style="stroke: gray; fill: none;" marker-start="url(#ZERO_OR_MORE_START)" marker-end="url(#ZERO_OR_MORE_END)" d="M55.971,130L52.002,138.333C48.034,146.667,40.098,163.333,40.538,180C40.979,196.667,49.798,213.333,54.207,221.667L58.616,230" class="er relationshipLine"/><path style="stroke: gray; fill: none;" marker-start="url(#ZERO_OR_ONE_START)" marker-end="url(#ONLY_ONE_END)" d="M105.706,230L110.115,221.667C114.524,213.333,123.343,196.667,123.784,180C124.225,163.333,116.288,146.667,112.32,138.333L108.352,130" class="er relationshipLine"/><path style="stroke: gray; fill: none;" marker-start="url(#ZERO_OR_ONE_START)" marker-end="url(#ONLY_ONE_END)" d="M144.322,235.339L158.962,226.115C173.602,216.892,202.881,198.446,202.011,178.366C201.141,158.286,170.122,136.572,154.612,125.715L139.102,114.859" class="er relationshipLine"/><path style="stroke: gray; fill: none;" marker-start="url(#ZERO_OR_MORE_START)" marker-end="url(#ZERO_OR_MORE_END)" d="M58.616,319L54.207,327.333C49.798,335.667,40.979,352.333,39.851,369C38.723,385.667,45.284,402.333,48.565,410.667L51.846,419" class="er relationshipLine"/><path style="stroke: gray; fill: none;" marker-start="url(#ZERO_OR_ONE_START)" marker-end="url(#ONLY_ONE_END)" d="M112.476,419L115.757,410.667C119.038,402.333,125.599,385.667,124.471,369C123.343,352.333,114.524,335.667,110.115,327.333L105.706,319" class="er relationshipLine"/><g transform="translate(25.220245361328125,20 )" id="entity-Player-8a4d8822-5447-5bf3-9bb1-c82c7616821b"><rect height="110" width="113.88156127929688" y="0" x="0" class="er entityBox"/><text style="dominant-baseline: middle; text-anchor: middle; font-size: 12px;" transform="translate(56.94078063964844,12)" y="0" x="0" id="text-entity-Player-8a4d8822-5447-5bf3-9bb1-c82c7616821b" class="er entityLabel">Player</text><rect height="23" width="36.947052001953125" y="24" x="0" class="er attributeBoxOdd"/><text style="dominant-baseline: middle; font-size: 10.2px;" transform="translate(5,35.5)" y="0" x="0" id="text-entity-Player-8a4d8822-5447-5bf3-9bb1-c82c7616821b-attr-1-type" class="er entityLabel">String</text><rect height="23" width="53.93450927734375" y="24" x="36.947052001953125" class="er attributeBoxOdd"/><text style="dominant-baseline: middle; font-size: 10.2px;" transform="translate(41.947052001953125,35.5)" y="0" x="0" id="text-entity-Player-8a4d8822-5447-5bf3-9bb1-c82c7616821b-attr-1-name" class="er entityLabel">id</text><rect height="23" width="23" y="24" x="90.88156127929688" class="er attributeBoxOdd"/><text style="dominant-baseline: middle; font-size: 10.2px;" transform="translate(95.88156127929688,35.5)" y="0" x="0" id="text-entity-Player-8a4d8822-5447-5bf3-9bb1-c82c7616821b-attr-1-comment" class="er entityLabel">🗝️</text><rect height="21" width="36.947052001953125" y="47" x="0" class="er attributeBoxEven"/><text style="dominant-baseline: middle; font-size: 10.2px;" transform="translate(5,57.5)" y="0" x="0" id="text-entity-Player-8a4d8822-5447-5bf3-9bb1-c82c7616821b-attr-2-type" class="er entityLabel">String</text><rect height="21" width="53.93450927734375" y="47" x="36.947052001953125" class="er attributeBoxEven"/><text style="dominant-baseline: middle; font-size: 10.2px;" transform="translate(41.947052001953125,57.5)" y="0" x="0" id="text-entity-Player-8a4d8822-5447-5bf3-9bb1-c82c7616821b-attr-2-name" class="er entityLabel">email</text><rect height="21" width="23" y="47" x="90.88156127929688" class="er attributeBoxEven"/><text style="dominant-baseline: middle; font-size: 10.2px;" transform="translate(95.88156127929688,57.5)" y="0" x="0" id="text-entity-Player-8a4d8822-5447-5bf3-9bb1-c82c7616821b-attr-2-comment" class="er entityLabel"/><rect height="21" width="36.947052001953125" y="68" x="0" class="er attributeBoxOdd"/><text style="dominant-baseline: middle; font-size: 10.2px;" transform="translate(5,78.5)" y="0" x="0" id="text-entity-Player-8a4d8822-5447-5bf3-9bb1-c82c7616821b-attr-3-type" class="er entityLabel">String</text><rect height="21" width="53.93450927734375" y="68" x="36.947052001953125" class="er attributeBoxOdd"/><text style="dominant-baseline: middle; font-size: 10.2px;" transform="translate(41.947052001953125,78.5)" y="0" x="0" id="text-entity-Player-8a4d8822-5447-5bf3-9bb1-c82c7616821b-attr-3-name" class="er entityLabel">name</text><rect height="21" width="23" y="68" x="90.88156127929688" class="er attributeBoxOdd"/><text style="dominant-baseline: middle; font-size: 10.2px;" transform="translate(95.88156127929688,78.5)" y="0" x="0" id="text-entity-Player-8a4d8822-5447-5bf3-9bb1-c82c7616821b-attr-3-comment" class="er entityLabel"/><rect height="21" width="36.947052001953125" y="89" x="0" class="er attributeBoxEven"/><text style="dominant-baseline: middle; font-size: 10.2px;" transform="translate(5,99.5)" y="0" x="0" id="text-entity-Player-8a4d8822-5447-5bf3-9bb1-c82c7616821b-attr-4-type" class="er entityLabel">String</text><rect height="21" width="53.93450927734375" y="89" x="36.947052001953125" class="er attributeBoxEven"/><text style="dominant-baseline: middle; font-size: 10.2px;" transform="translate(41.947052001953125,99.5)" y="0" x="0" id="text-entity-Player-8a4d8822-5447-5bf3-9bb1-c82c7616821b-attr-4-name" class="er entityLabel">password</text><rect height="21" width="23" y="89" x="90.88156127929688" class="er attributeBoxEven"/><text style="dominant-baseline: middle; font-size: 10.2px;" transform="translate(95.88156127929688,99.5)" y="0" x="0" id="text-entity-Player-8a4d8822-5447-5bf3-9bb1-c82c7616821b-attr-4-comment" class="er entityLabel"/></g><g transform="translate(20,230 )" id="entity-Game-87e52c75-2f34-5ffb-97f0-d4ba8ef70a3a"><rect height="89" width="124.32205200195312" y="0" x="0" class="er entityBox"/><text style="dominant-baseline: middle; text-anchor: middle; font-size: 12px;" transform="translate(62.16102600097656,12)" y="0" x="0" id="text-entity-Game-87e52c75-2f34-5ffb-97f0-d4ba8ef70a3a" class="er entityLabel">Game</text><rect height="23" width="36.947052001953125" y="24" x="0" class="er attributeBoxOdd"/><text style="dominant-baseline: middle; font-size: 10.2px;" transform="translate(5,35.5)" y="0" x="0" id="text-entity-Game-87e52c75-2f34-5ffb-97f0-d4ba8ef70a3a-attr-1-type" class="er entityLabel">String</text><rect height="23" width="64.375" y="24" x="36.947052001953125" class="er attributeBoxOdd"/><text style="dominant-baseline: middle; font-size: 10.2px;" transform="translate(41.947052001953125,35.5)" y="0" x="0" id="text-entity-Game-87e52c75-2f34-5ffb-97f0-d4ba8ef70a3a-attr-1-name" class="er entityLabel">id</text><rect height="23" width="23" y="24" x="101.32205200195312" class="er attributeBoxOdd"/><text style="dominant-baseline: middle; font-size: 10.2px;" transform="translate(106.32205200195312,35.5)" y="0" x="0" id="text-entity-Game-87e52c75-2f34-5ffb-97f0-d4ba8ef70a3a-attr-1-comment" class="er entityLabel">🗝️</text><rect height="21" width="36.947052001953125" y="47" x="0" class="er attributeBoxEven"/><text style="dominant-baseline: middle; font-size: 10.2px;" transform="translate(5,57.5)" y="0" x="0" id="text-entity-Game-87e52c75-2f34-5ffb-97f0-d4ba8ef70a3a-attr-2-type" class="er entityLabel">String</text><rect height="21" width="64.375" y="47" x="36.947052001953125" class="er attributeBoxEven"/><text style="dominant-baseline: middle; font-size: 10.2px;" transform="translate(41.947052001953125,57.5)" y="0" x="0" id="text-entity-Game-87e52c75-2f34-5ffb-97f0-d4ba8ef70a3a-attr-2-name" class="er entityLabel">turn</text><rect height="21" width="23" y="47" x="101.32205200195312" class="er attributeBoxEven"/><text style="dominant-baseline: middle; font-size: 10.2px;" transform="translate(106.32205200195312,57.5)" y="0" x="0" id="text-entity-Game-87e52c75-2f34-5ffb-97f0-d4ba8ef70a3a-attr-2-comment" class="er entityLabel"/><rect height="21" width="36.947052001953125" y="68" x="0" class="er attributeBoxOdd"/><text style="dominant-baseline: middle; font-size: 10.2px;" transform="translate(5,78.5)" y="0" x="0" id="text-entity-Game-87e52c75-2f34-5ffb-97f0-d4ba8ef70a3a-attr-3-type" class="er entityLabel">String</text><rect height="21" width="64.375" y="68" x="36.947052001953125" class="er attributeBoxOdd"/><text style="dominant-baseline: middle; font-size: 10.2px;" transform="translate(41.947052001953125,78.5)" y="0" x="0" id="text-entity-Game-87e52c75-2f34-5ffb-97f0-d4ba8ef70a3a-attr-3-name" class="er entityLabel">gameStatus</text><rect height="21" width="23" y="68" x="101.32205200195312" class="er attributeBoxOdd"/><text style="dominant-baseline: middle; font-size: 10.2px;" transform="translate(106.32205200195312,78.5)" y="0" x="0" id="text-entity-Game-87e52c75-2f34-5ffb-97f0-d4ba8ef70a3a-attr-3-comment" class="er entityLabel"/></g><g transform="translate(24.53125,419 )" id="entity-Move-bc8e2787-9ebf-5c38-8a4b-9e7696d2d8de"><rect height="154" width="115.25955200195312" y="0" x="0" class="er entityBox"/><text style="dominant-baseline: middle; text-anchor: middle; font-size: 12px;" transform="translate(57.62977600097656,12)" y="0" x="0" id="text-entity-Move-bc8e2787-9ebf-5c38-8a4b-9e7696d2d8de" class="er entityLabel">Move</text><rect height="23" width="36.947052001953125" y="24" x="0" class="er attributeBoxOdd"/><text style="dominant-baseline: middle; font-size: 10.2px;" transform="translate(5,35.5)" y="0" x="0" id="text-entity-Move-bc8e2787-9ebf-5c38-8a4b-9e7696d2d8de-attr-1-type" class="er entityLabel">String</text><rect height="23" width="55.3125" y="24" x="36.947052001953125" class="er attributeBoxOdd"/><text style="dominant-baseline: middle; font-size: 10.2px;" transform="translate(41.947052001953125,35.5)" y="0" x="0" id="text-entity-Move-bc8e2787-9ebf-5c38-8a4b-9e7696d2d8de-attr-1-name" class="er entityLabel">id</text><rect height="23" width="23" y="24" x="92.25955200195312" class="er attributeBoxOdd"/><text style="dominant-baseline: middle; font-size: 10.2px;" transform="translate(97.25955200195312,35.5)" y="0" x="0" id="text-entity-Move-bc8e2787-9ebf-5c38-8a4b-9e7696d2d8de-attr-1-comment" class="er entityLabel">🗝️</text><rect height="21" width="36.947052001953125" y="47" x="0" class="er attributeBoxEven"/><text style="dominant-baseline: middle; font-size: 10.2px;" transform="translate(5,57.5)" y="0" x="0" id="text-entity-Move-bc8e2787-9ebf-5c38-8a4b-9e7696d2d8de-attr-2-type" class="er entityLabel">Int</text><rect height="21" width="55.3125" y="47" x="36.947052001953125" class="er attributeBoxEven"/><text style="dominant-baseline: middle; font-size: 10.2px;" transform="translate(41.947052001953125,57.5)" y="0" x="0" id="text-entity-Move-bc8e2787-9ebf-5c38-8a4b-9e7696d2d8de-attr-2-name" class="er entityLabel">moveNo</text><rect height="21" width="23" y="47" x="92.25955200195312" class="er attributeBoxEven"/><text style="dominant-baseline: middle; font-size: 10.2px;" transform="translate(97.25955200195312,57.5)" y="0" x="0" id="text-entity-Move-bc8e2787-9ebf-5c38-8a4b-9e7696d2d8de-attr-2-comment" class="er entityLabel"/><rect height="21" width="36.947052001953125" y="68" x="0" class="er attributeBoxOdd"/><text style="dominant-baseline: middle; font-size: 10.2px;" transform="translate(5,78.5)" y="0" x="0" id="text-entity-Move-bc8e2787-9ebf-5c38-8a4b-9e7696d2d8de-attr-3-type" class="er entityLabel">String</text><rect height="21" width="55.3125" y="68" x="36.947052001953125" class="er attributeBoxOdd"/><text style="dominant-baseline: middle; font-size: 10.2px;" transform="translate(41.947052001953125,78.5)" y="0" x="0" id="text-entity-Move-bc8e2787-9ebf-5c38-8a4b-9e7696d2d8de-attr-3-name" class="er entityLabel">from</text><rect height="21" width="23" y="68" x="92.25955200195312" class="er attributeBoxOdd"/><text style="dominant-baseline: middle; font-size: 10.2px;" transform="translate(97.25955200195312,78.5)" y="0" x="0" id="text-entity-Move-bc8e2787-9ebf-5c38-8a4b-9e7696d2d8de-attr-3-comment" class="er entityLabel"/><rect height="21" width="36.947052001953125" y="89" x="0" class="er attributeBoxEven"/><text style="dominant-baseline: middle; font-size: 10.2px;" transform="translate(5,99.5)" y="0" x="0" id="text-entity-Move-bc8e2787-9ebf-5c38-8a4b-9e7696d2d8de-attr-4-type" class="er entityLabel">String</text><rect height="21" width="55.3125" y="89" x="36.947052001953125" class="er attributeBoxEven"/><text style="dominant-baseline: middle; font-size: 10.2px;" transform="translate(41.947052001953125,99.5)" y="0" x="0" id="text-entity-Move-bc8e2787-9ebf-5c38-8a4b-9e7696d2d8de-attr-4-name" class="er entityLabel">to</text><rect height="21" width="23" y="89" x="92.25955200195312" class="er attributeBoxEven"/><text style="dominant-baseline: middle; font-size: 10.2px;" transform="translate(97.25955200195312,99.5)" y="0" x="0" id="text-entity-Move-bc8e2787-9ebf-5c38-8a4b-9e7696d2d8de-attr-4-comment" class="er entityLabel"/><rect height="23" width="36.947052001953125" y="110" x="0" class="er attributeBoxOdd"/><text style="dominant-baseline: middle; font-size: 10.2px;" transform="translate(5,121.5)" y="0" x="0" id="text-entity-Move-bc8e2787-9ebf-5c38-8a4b-9e7696d2d8de-attr-5-type" class="er entityLabel">String</text><rect height="23" width="55.3125" y="110" x="36.947052001953125" class="er attributeBoxOdd"/><text style="dominant-baseline: middle; font-size: 10.2px;" transform="translate(41.947052001953125,121.5)" y="0" x="0" id="text-entity-Move-bc8e2787-9ebf-5c38-8a4b-9e7696d2d8de-attr-5-name" class="er entityLabel">promotion</text><rect height="23" width="23" y="110" x="92.25955200195312" class="er attributeBoxOdd"/><text style="dominant-baseline: middle; font-size: 10.2px;" transform="translate(97.25955200195312,121.5)" y="0" x="0" id="text-entity-Move-bc8e2787-9ebf-5c38-8a4b-9e7696d2d8de-attr-5-comment" class="er entityLabel">❓</text><rect height="21" width="36.947052001953125" y="133" x="0" class="er attributeBoxEven"/><text style="dominant-baseline: middle; font-size: 10.2px;" transform="translate(5,143.5)" y="0" x="0" id="text-entity-Move-bc8e2787-9ebf-5c38-8a4b-9e7696d2d8de-attr-6-type" class="er entityLabel">String</text><rect height="21" width="55.3125" y="133" x="36.947052001953125" class="er attributeBoxEven"/><text style="dominant-baseline: middle; font-size: 10.2px;" transform="translate(41.947052001953125,143.5)" y="0" x="0" id="text-entity-Move-bc8e2787-9ebf-5c38-8a4b-9e7696d2d8de-attr-6-name" class="er entityLabel">turn</text><rect height="21" width="23" y="133" x="92.25955200195312" class="er attributeBoxEven"/><text style="dominant-baseline: middle; font-size: 10.2px;" transform="translate(97.25955200195312,143.5)" y="0" x="0" id="text-entity-Move-bc8e2787-9ebf-5c38-8a4b-9e7696d2d8de-attr-6-comment" class="er entityLabel"/></g><rect height="14" width="43.017578125" y="167.61376953125" x="-58.69877243041992" class="er relationshipLabelBox"/><text style="text-anchor: middle; dominant-baseline: middle; font-size: 12px;" y="174.61376953125" x="-37.18998336791992" id="rel1" class="er relationshipLabel">games1</text><rect height="14" width="43.017578125" y="173.40879821777344" x="19.041732788085938" class="er relationshipLabelBox"/><text style="text-anchor: middle; dominant-baseline: middle; font-size: 12px;" y="180.40879821777344" x="40.55052185058594" id="rel2" class="er relationshipLabel">games2</text><rect height="14" width="39.68359375" y="173.40895080566406" x="103.92967987060547" class="er relationshipLabelBox"/><text style="text-anchor: middle; dominant-baseline: middle; font-size: 12px;" y="180.40895080566406" x="123.77147674560547" id="rel3" class="er relationshipLabel">player1</text><rect height="14" width="39.68359375" y="167.6137237548828" x="181.67018127441406" class="er relationshipLabelBox"/><text style="text-anchor: middle; dominant-baseline: middle; font-size: 12px;" y="174.6137237548828" x="201.51197814941406" id="rel4" class="er relationshipLabel">player2</text><rect height="14" width="35.34375" y="361.0322265625" x="22.253524780273438" class="er relationshipLabelBox"/><text style="text-anchor: middle; dominant-baseline: middle; font-size: 12px;" y="368.0322265625" x="39.92539978027344" id="rel5" class="er relationshipLabel">moves</text><rect height="14" width="33.00390625" y="361.0322265625" x="107.89464569091797" class="er relationshipLabelBox"/><text style="text-anchor: middle; dominant-baseline: middle; font-size: 12px;" y="368.0322265625" x="124.39659881591797" id="rel6" class="er relationshipLabel">Game</text></svg>